<?xml version="1.0" standalone="no"?>
<!DOCTYPE svg PUBLIC "-//W3C//DTD SVG 20010904//EN"
 "http://www.w3.org/TR/2001/REC-SVG-20010904/DTD/svg10.dtd">
<svg version="1.0" xmlns="http://www.w3.org/2000/svg"
 width="2560.000000pt" height="781.000000pt" viewBox="0 0 2560.000000 781.000000"
 preserveAspectRatio="xMidYMid meet">

<g transform="translate(0.000000,781.000000) scale(0.100000,-0.100000)"
fill="#000000" stroke="none">
<path d="M17019 7625 c-46 -34 -86 -88 -120 -163 -35 -78 -70 -128 -160 -234
-100 -117 -107 -136 -134 -322 -34 -240 -34 -239 -249 -547 -30 -42 -63 -103
-76 -135 -43 -116 -99 -323 -119 -445 -12 -68 -33 -155 -47 -194 -14 -38 -36
-116 -49 -171 -30 -132 -42 -156 -132 -261 -119 -139 -133 -169 -203 -438
l-41 -160 -9 -300 c-9 -315 -24 -449 -62 -570 l-23 -70 -5 80 c-4 54 -12 93
-26 120 -28 53 -30 60 -59 345 -21 213 -24 273 -18 460 7 244 5 251 -68 313
l-41 35 7 100 c9 122 -3 182 -51 249 -19 26 -37 63 -40 81 -4 18 -1 100 6 183
18 204 10 240 -71 320 -67 67 -75 93 -65 202 12 122 43 256 91 387 62 171 95
295 95 359 0 49 -3 57 -39 92 -33 33 -45 39 -81 39 -52 0 -72 -19 -184 -179
-90 -128 -125 -205 -137 -304 -17 -134 -33 -174 -104 -256 -62 -73 -102 -155
-120 -248 -8 -42 -17 -79 -20 -82 -9 -8 -25 21 -25 46 0 60 -48 111 -95 99
-13 -3 -36 -23 -50 -44 l-26 -37 7 76 c6 70 5 78 -15 98 -47 47 -108 9 -162
-99 -57 -114 -78 -189 -90 -323 -14 -166 -102 -542 -195 -827 -40 -124 -78
-260 -85 -303 -16 -104 -6 -357 20 -512 32 -184 25 -369 -20 -519 -22 -73 -43
-108 -142 -238 -124 -164 -154 -263 -144 -468 5 -104 11 -128 54 -250 l48
-135 -1 -140 c0 -109 -5 -161 -23 -235 -24 -105 -23 -126 15 -237 24 -70 24
-74 13 -225 -13 -167 -7 -380 11 -443 7 -21 27 -54 45 -72 41 -41 85 -44 121
-8 31 31 94 161 94 194 0 48 63 287 96 361 47 108 57 154 56 255 -1 87 -20
230 -42 305 -19 66 -12 144 21 235 39 106 83 173 159 243 45 40 64 66 80 110
21 54 21 64 11 168 -18 180 -14 245 28 460 21 109 43 255 50 322 6 68 28 205
48 305 45 226 47 297 9 471 -35 158 -32 235 12 406 67 253 114 367 137 330 4
-7 4 -101 0 -209 l-7 -198 27 -52 c14 -29 49 -74 76 -100 38 -37 55 -63 72
-112 20 -56 29 -69 90 -118 80 -64 86 -80 117 -301 22 -159 40 -230 74 -300
54 -108 78 -184 87 -282 6 -62 19 -124 35 -166 25 -66 25 -68 13 -185 -24
-223 20 -308 179 -347 70 -18 77 -30 90 -172 13 -144 39 -237 82 -297 73 -100
188 -111 242 -23 19 32 22 54 28 251 8 240 14 270 90 421 72 143 79 175 89
418 10 254 6 239 129 404 91 121 121 179 157 303 28 98 31 169 10 265 -8 36
-14 88 -15 117 0 55 40 300 68 418 l16 70 7 -135 c4 -74 12 -148 19 -165 6
-16 40 -59 75 -95 124 -127 137 -172 90 -305 -14 -38 -36 -113 -50 -165 -13
-52 -35 -123 -49 -156 -33 -80 -40 -162 -27 -305 7 -84 20 -146 45 -226 l36
-110 0 -229 c0 -194 3 -242 20 -312 37 -153 104 -291 200 -413 50 -64 55 -92
32 -176 -27 -92 -42 -199 -42 -286 0 -94 25 -141 95 -179 l50 -27 5 -128 c7
-183 9 -185 205 -321 l47 -33 -7 -147 c-7 -141 -6 -148 15 -174 27 -35 83 -38
116 -7 l23 21 14 -34 c8 -19 27 -45 43 -57 53 -42 134 -7 134 58 0 14 -7 60
-16 101 -8 41 -19 119 -24 175 -13 134 -19 153 -95 280 -36 61 -70 126 -75
145 -15 53 -12 125 10 230 22 107 26 215 8 257 -6 15 -39 66 -72 113 l-61 85
0 195 0 195 -42 81 c-87 169 -92 243 -24 392 57 128 72 189 78 318 4 85 2 124
-11 166 -21 72 -20 95 4 213 11 53 20 130 20 170 0 69 -2 76 -35 117 -61 75
-68 100 -61 215 5 74 4 108 -5 125 -8 15 -12 54 -10 110 3 114 -11 188 -65
331 l-44 118 -9 262 c-11 284 -22 353 -97 635 l-37 137 7 195 c9 316 27 393
163 713 163 387 173 419 148 502 -26 92 -95 121 -166 70z m98 -140 c-3 -46
-24 -107 -92 -270 -48 -115 -103 -247 -122 -293 -72 -174 -103 -365 -105 -655
-2 -137 0 -148 40 -297 75 -281 83 -339 92 -620 l7 -255 46 -120 c55 -147 70
-222 61 -317 -5 -55 -3 -82 9 -110 12 -28 14 -59 10 -135 -7 -119 3 -156 58
-219 36 -41 39 -50 39 -102 0 -31 -9 -99 -20 -151 -24 -114 -25 -164 -4 -245
12 -45 15 -86 11 -156 -6 -109 -23 -168 -80 -295 -32 -69 -42 -106 -45 -158
-5 -86 8 -136 69 -268 54 -117 57 -141 39 -299 -14 -116 -6 -159 44 -231 101
-150 106 -160 106 -219 0 -30 -9 -93 -20 -140 -11 -48 -20 -122 -20 -171 0
-81 2 -92 38 -160 21 -41 57 -106 80 -145 37 -61 44 -82 53 -160 5 -49 19
-140 30 -202 12 -62 18 -116 14 -120 -11 -11 -35 29 -51 85 -8 28 -21 57 -29
63 -24 20 -63 2 -91 -40 -15 -22 -29 -38 -32 -35 -3 3 1 63 8 133 17 166 11
179 -104 257 -138 93 -145 107 -146 287 0 118 -3 124 -69 157 -54 28 -73 55
-78 108 -5 48 27 255 46 306 17 43 13 119 -7 157 -9 19 -39 61 -64 93 -58 70
-118 191 -154 312 -27 88 -28 94 -25 327 l2 236 -36 107 c-42 126 -55 204 -55
343 0 87 4 112 25 165 14 34 35 98 46 142 11 44 36 128 55 187 19 59 34 125
34 145 -1 60 -34 118 -120 208 -44 46 -81 85 -81 87 -1 2 -5 89 -8 194 -6 203
-12 224 -56 224 -64 0 -112 -128 -165 -443 -24 -140 -25 -220 -5 -302 20 -84
18 -146 -6 -234 -31 -111 -69 -184 -155 -296 -122 -159 -124 -167 -135 -418
-5 -117 -12 -225 -15 -242 -3 -16 -33 -87 -66 -158 -84 -181 -97 -242 -102
-467 -2 -102 -7 -193 -11 -203 -10 -24 -51 -32 -82 -16 -58 31 -96 136 -112
315 -5 60 -14 122 -20 136 -14 38 -69 75 -135 92 -109 29 -121 58 -112 265 6
134 5 151 -15 206 -11 33 -25 101 -30 150 -8 93 -34 180 -88 298 -43 96 -58
154 -76 292 -31 239 -50 285 -141 348 -46 33 -55 45 -73 100 -17 49 -35 76
-85 129 -85 88 -90 106 -76 296 12 154 7 239 -16 283 -24 48 -77 53 -116 12
-40 -43 -63 -97 -108 -254 -89 -307 -96 -386 -54 -577 36 -161 35 -231 -9
-449 -20 -100 -42 -237 -48 -305 -7 -67 -29 -213 -50 -322 -42 -214 -47 -306
-29 -469 15 -128 5 -154 -89 -247 -60 -60 -85 -95 -118 -162 -76 -156 -93
-263 -60 -378 27 -94 40 -204 35 -306 -4 -87 -10 -110 -42 -184 -34 -78 -106
-336 -106 -384 -1 -32 -63 -151 -81 -154 -9 -2 -22 9 -30 25 -11 22 -14 90
-15 338 0 294 -1 313 -22 369 -27 73 -27 85 -1 216 15 71 22 144 22 225 1 119
0 121 -52 275 l-53 154 4 151 c3 146 4 152 35 215 18 36 69 114 113 174 45 60
90 127 101 149 32 62 57 177 70 315 11 131 10 150 -27 382 -10 64 -17 166 -18
260 0 177 11 233 94 468 26 76 79 265 118 422 57 235 70 304 75 396 4 82 12
131 32 190 26 78 84 198 92 190 2 -2 -3 -41 -11 -86 -21 -108 -10 -160 34
-160 24 0 37 11 81 72 l52 72 13 -61 c16 -79 28 -101 61 -109 53 -14 84 28
118 161 28 108 57 166 115 229 64 70 93 142 110 268 14 106 49 182 144 313 95
130 98 132 132 110 25 -16 26 -20 20 -77 -3 -33 -39 -159 -80 -281 -77 -231
-106 -363 -106 -491 0 -87 19 -129 84 -192 66 -63 70 -82 54 -274 -14 -183 -8
-221 45 -301 l42 -63 -3 -147 -3 -148 27 -18 c15 -10 40 -31 57 -46 l30 -28
-7 -217 c-6 -192 -4 -246 18 -467 30 -290 31 -295 63 -358 21 -41 23 -60 21
-131 -3 -72 0 -87 16 -105 15 -16 29 -21 55 -19 44 4 72 42 101 137 38 123 51
239 60 551 10 328 18 382 96 640 33 106 56 147 144 246 89 102 116 152 140
264 11 51 35 138 54 193 19 56 40 138 46 182 19 130 85 376 131 482 11 25 59
100 108 167 156 213 177 265 210 514 11 77 25 150 32 163 7 13 47 64 88 114
101 119 114 138 165 243 27 54 59 101 81 121 36 31 38 32 57 14 17 -15 19 -27
15 -78z"/>
<path d="M1688 7087 c-58 -17 -110 -51 -303 -201 -161 -125 -249 -176 -317
-183 -27 -3 -82 5 -145 20 -81 20 -109 23 -143 16 -94 -21 -227 -107 -308
-199 -56 -64 -76 -71 -122 -45 -36 20 -83 18 -113 -5 -42 -33 -60 -97 -55
-192 6 -105 26 -145 117 -233 103 -100 110 -142 60 -367 -58 -259 -38 -337
133 -529 54 -62 109 -130 120 -153 31 -58 28 -144 -7 -288 l-29 -117 23 -56
c17 -41 21 -65 16 -94 -5 -32 0 -53 25 -111 32 -72 32 -74 25 -185 -7 -102 -5
-117 14 -160 12 -26 46 -79 77 -117 71 -88 86 -122 74 -174 -21 -87 -12 -143
44 -305 104 -297 115 -461 44 -627 -31 -75 -25 -121 27 -194 58 -81 109 -187
125 -260 13 -57 13 -57 -26 -135 -38 -75 -39 -82 -42 -196 -4 -135 6 -177 63
-273 20 -32 44 -87 55 -121 23 -74 52 -134 75 -153 9 -7 22 -25 29 -39 19 -37
28 -203 16 -294 -12 -95 0 -131 56 -173 22 -15 54 -41 72 -58 l32 -30 0 -123
c0 -152 18 -210 85 -272 58 -53 106 -57 151 -10 l29 30 0 172 0 172 62 73 c81
93 97 125 97 192 1 47 -5 64 -36 115 -27 43 -40 80 -48 129 -10 65 -9 75 21
173 40 132 38 188 -11 265 -124 199 -125 200 -125 248 0 34 11 71 43 136 72
152 75 241 12 383 l-30 69 25 66 c14 37 25 80 25 97 0 17 -21 78 -46 137 -57
131 -64 195 -24 237 51 54 52 54 159 -49 135 -129 159 -140 278 -132 56 5 99
3 111 -3 28 -15 95 -105 153 -207 60 -105 92 -142 134 -153 37 -10 68 1 117
40 20 16 46 29 57 29 10 0 45 -23 76 -51 52 -48 60 -52 122 -58 53 -6 70 -12
86 -32 28 -35 103 -188 112 -229 10 -49 38 -100 70 -130 35 -33 97 -31 188 5
66 27 68 27 88 9 12 -10 54 -87 95 -171 61 -124 82 -158 117 -186 57 -46 77
-56 144 -68 32 -6 64 -16 71 -22 8 -6 32 -47 54 -91 49 -98 101 -181 137 -220
14 -15 82 -66 151 -112 69 -45 131 -93 139 -106 9 -14 14 -53 15 -103 2 -102
31 -168 149 -333 46 -64 94 -136 105 -158 28 -55 87 -104 160 -133 72 -28 95
-50 157 -154 71 -118 128 -142 184 -80 20 24 22 33 17 82 -3 31 -10 94 -15
141 -13 123 -64 287 -131 425 -53 108 -71 134 -179 254 -127 140 -124 134
-136 256 -14 128 -87 223 -221 285 -99 46 -143 88 -193 188 -50 98 -72 122
-154 161 -37 18 -75 43 -84 57 -9 14 -31 77 -50 141 -54 184 -77 218 -208 314
l-83 60 -47 107 c-80 183 -147 267 -254 322 -36 18 -55 21 -105 17 -34 -3 -71
-8 -83 -12 -18 -6 -26 3 -63 74 -66 127 -125 161 -196 114 -23 -14 -24 -13
-70 79 -92 183 -153 248 -235 248 -72 0 -79 45 -11 80 72 38 120 87 158 162
41 81 61 94 180 113 133 21 203 74 272 203 34 63 76 198 87 279 6 45 11 54 45
77 60 40 84 101 87 221 1 55 2 105 3 111 0 6 27 46 60 90 102 134 117 205 96
455 -8 96 -6 116 14 195 41 162 18 256 -84 351 l-45 42 6 188 c7 219 3 239
-63 312 -81 90 -168 112 -278 70 -31 -11 -70 -19 -88 -17 l-33 3 -12 88 c-24
162 -47 181 -216 171 l-112 -6 -100 65 c-55 35 -134 79 -175 97 -41 18 -114
54 -161 81 -172 98 -189 103 -334 106 -86 2 -146 -2 -177 -10z m289 -70 c28
-8 104 -43 169 -79 66 -37 148 -78 182 -93 35 -14 111 -56 168 -92 117 -73
149 -83 249 -72 126 13 136 5 149 -124 14 -136 71 -166 223 -117 88 29 126 23
186 -30 66 -59 71 -82 63 -298 -6 -174 -6 -185 14 -217 11 -18 36 -44 54 -59
42 -32 76 -100 76 -152 0 -21 -10 -77 -21 -124 -18 -75 -20 -100 -13 -215 16
-248 6 -293 -88 -412 -70 -87 -82 -123 -73 -204 11 -95 -7 -151 -67 -203 l-50
-44 -23 -115 c-24 -121 -53 -196 -105 -272 -43 -63 -91 -92 -175 -105 -154
-25 -189 -48 -243 -155 -34 -68 -55 -90 -127 -130 -115 -64 -130 -103 -66
-172 40 -42 78 -60 106 -49 44 17 89 -37 195 -236 34 -64 69 -119 78 -123 9
-3 31 7 53 25 21 16 42 30 47 30 13 0 56 -65 88 -133 15 -32 38 -66 51 -74 22
-15 29 -15 77 0 68 22 98 21 144 -2 82 -42 138 -118 213 -285 37 -83 61 -125
83 -142 17 -13 60 -44 94 -70 84 -62 108 -101 154 -252 47 -157 73 -196 158
-240 87 -45 96 -54 142 -145 52 -104 109 -159 212 -208 91 -42 155 -102 174
-160 7 -19 16 -71 21 -117 11 -99 20 -115 155 -260 100 -108 145 -178 201
-310 38 -91 89 -285 82 -312 -3 -11 2 -54 10 -95 9 -42 13 -79 9 -82 -11 -11
-47 30 -86 98 -50 84 -99 128 -179 159 -70 28 -80 38 -178 185 -37 55 -86 128
-109 162 -63 92 -87 165 -79 236 10 93 -16 127 -175 232 -71 47 -144 103 -162
125 -19 21 -62 93 -97 160 -73 137 -100 166 -169 175 -67 9 -75 12 -120 45
-34 25 -53 54 -116 184 -42 84 -89 168 -106 185 -38 37 -83 41 -148 11 -23
-10 -58 -23 -77 -29 -47 -13 -78 12 -94 76 -16 61 -80 198 -120 257 -39 56
-75 76 -137 76 -41 0 -52 5 -98 46 -92 84 -138 89 -212 24 -19 -16 -43 -30
-53 -30 -24 0 -64 47 -98 114 -64 126 -168 248 -220 259 -15 3 -57 1 -92 -5
-97 -16 -123 -4 -247 112 -58 55 -118 103 -132 107 -36 9 -108 -32 -139 -78
-49 -74 -42 -144 30 -308 l41 -94 -27 -76 c-15 -42 -27 -86 -27 -96 0 -11 14
-49 32 -85 29 -58 32 -75 32 -155 1 -86 -1 -94 -43 -185 -52 -110 -62 -175
-37 -235 10 -22 47 -86 83 -143 79 -124 84 -149 49 -257 -14 -44 -28 -99 -32
-121 -10 -67 13 -175 52 -240 19 -31 37 -67 40 -79 9 -35 -18 -86 -90 -168
-37 -42 -71 -89 -75 -105 -4 -15 -4 -58 0 -97 11 -100 11 -203 -1 -226 -15
-26 -32 -24 -63 8 -46 49 -57 91 -57 225 0 145 -7 161 -98 234 l-60 48 1 165
c0 214 -4 236 -58 300 -32 38 -50 72 -68 131 -14 44 -44 113 -68 152 l-44 72
-4 119 -3 119 36 68 c19 38 38 86 42 107 12 78 -46 234 -127 344 -28 38 -49
77 -49 92 0 13 11 54 24 89 67 178 54 342 -55 652 -50 145 -51 151 -44 220 16
144 12 157 -79 271 -86 107 -88 116 -80 253 6 116 6 118 -24 184 -23 52 -29
76 -25 107 4 28 -1 55 -17 93 l-22 53 28 105 c17 68 27 134 28 185 1 104 -25
158 -134 280 -184 204 -197 253 -140 508 51 231 39 303 -71 409 -38 37 -78 87
-89 110 -33 74 -23 207 17 222 7 3 37 -4 65 -15 67 -26 89 -17 167 67 69 73
135 123 212 158 66 31 97 32 196 5 167 -46 250 -15 523 196 193 150 212 163
273 175 67 13 198 11 254 -3z"/>
<path d="M1655 6134 c-16 -9 -70 -49 -120 -89 -156 -126 -169 -130 -346 -111
-90 10 -110 2 -139 -55 -24 -46 -39 -149 -29 -197 6 -31 32 -74 80 -134 20
-25 21 -30 9 -73 -14 -50 -7 -242 11 -294 6 -16 28 -43 50 -60 21 -18 39 -37
39 -44 0 -7 14 -30 30 -51 35 -47 37 -76 10 -154 -19 -52 -19 -60 -5 -107 14
-50 40 -81 102 -124 44 -30 54 -70 51 -206 l-3 -117 58 -51 c31 -29 57 -58 57
-65 0 -7 -14 -43 -32 -80 -32 -68 -46 -149 -34 -197 4 -17 19 -31 42 -41 39
-16 53 -12 116 38 46 36 91 50 123 38 14 -5 49 -30 80 -55 86 -70 105 -65 235
60 99 94 157 125 288 154 109 24 141 39 180 87 35 42 55 109 76 257 18 124 31
153 81 191 19 15 42 44 51 64 8 20 35 55 60 77 52 46 63 80 64 188 0 73 -15
121 -55 173 -34 45 -32 83 6 120 71 67 61 96 -88 254 -114 122 -108 107 -87
207 13 64 -85 213 -140 213 -12 0 -51 -11 -85 -26 -43 -17 -72 -23 -92 -19
-38 9 -89 70 -118 142 -36 89 -34 88 -179 89 -70 0 -170 3 -222 7 -79 6 -100
5 -125 -9z m308 -69 c70 -1 131 -6 136 -11 4 -5 16 -29 25 -53 56 -144 162
-202 275 -151 62 29 86 26 116 -15 26 -33 27 -38 20 -118 -9 -105 -7 -110 125
-247 55 -58 100 -110 100 -116 0 -5 -13 -23 -30 -39 -34 -33 -55 -86 -46 -120
4 -14 25 -53 47 -87 l41 -63 -6 -85 c-5 -84 -6 -86 -45 -120 -22 -19 -48 -53
-59 -75 -12 -22 -37 -53 -57 -69 -51 -40 -71 -90 -95 -246 -31 -206 -49 -229
-200 -262 -153 -33 -242 -83 -339 -190 -68 -75 -72 -76 -137 -24 -98 80 -166
83 -265 10 -26 -19 -49 -34 -53 -34 -18 0 -2 80 30 147 31 63 36 82 31 121 -5
47 -13 58 -83 108 l-29 21 3 116 c4 147 -10 186 -92 246 -63 47 -78 87 -55
144 8 17 14 62 14 98 0 54 -5 73 -26 105 -14 21 -37 56 -50 77 -13 20 -32 40
-42 43 -9 3 -21 14 -27 24 -12 22 -17 239 -6 300 8 48 7 51 -62 141 -33 42
-34 47 -30 114 3 39 10 81 17 94 12 22 16 23 69 15 32 -5 91 -9 132 -9 91 1
124 17 239 110 144 117 146 118 221 109 36 -4 123 -8 193 -9z"/>
<path d="M22770 6023 c-19 -24 -21 -36 -16 -103 3 -41 8 -170 12 -287 l6 -211
-31 -16 c-58 -31 -66 -55 -66 -206 0 -110 4 -149 23 -211 19 -65 22 -99 22
-255 1 -300 11 -393 61 -520 61 -160 79 -234 85 -369 5 -90 11 -131 26 -163
23 -49 68 -82 111 -82 27 0 28 -2 22 -32 -27 -133 -65 -274 -111 -404 -57
-164 -62 -194 -50 -324 7 -76 6 -87 -11 -101 -23 -20 -180 -81 -297 -115 -164
-47 -220 -88 -220 -162 0 -26 8 -41 31 -63 l32 -28 -102 -62 c-125 -77 -256
-200 -293 -275 -30 -62 -27 -91 17 -170 16 -28 29 -59 29 -70 0 -30 -97 -140
-206 -233 -160 -137 -192 -171 -209 -220 -12 -38 -23 -50 -61 -70 -74 -39
-142 -108 -190 -191 -25 -43 -57 -89 -72 -103 -15 -14 -84 -57 -155 -95 -165
-91 -218 -131 -411 -304 -137 -122 -165 -153 -198 -213 -46 -85 -49 -130 -12
-174 33 -40 81 -49 139 -27 42 16 123 84 325 271 122 112 156 129 372 175 101
22 206 51 233 65 70 34 211 161 337 302 59 67 126 136 149 154 108 87 142 125
174 194 56 122 140 246 263 387 110 127 120 142 137 205 36 136 80 189 270
318 182 125 344 244 381 281 23 23 56 72 74 110 57 118 214 253 338 289 229
67 425 238 467 408 9 33 80 84 205 147 104 52 189 109 255 170 45 42 145 108
230 153 76 39 499 423 530 480 15 29 17 40 7 61 -29 63 -101 74 -190 28 -31
-16 -112 -53 -179 -82 -113 -48 -129 -59 -224 -145 -75 -69 -131 -110 -208
-152 -58 -32 -119 -70 -136 -84 -72 -61 -108 -81 -191 -105 -49 -14 -129 -45
-179 -69 -50 -25 -137 -56 -195 -70 -125 -31 -168 -57 -217 -130 -20 -31 -38
-53 -41 -51 -2 3 3 26 12 52 37 109 13 205 -78 316 -33 40 -46 66 -46 88 0 38
-21 89 -54 133 l-26 34 1 219 c1 346 -18 436 -111 514 -33 28 -54 56 -66 88
-10 26 -44 115 -76 199 -32 84 -58 165 -58 180 0 121 -208 652 -285 729 -33
33 -77 32 -105 -3z m131 -190 c34 -71 76 -171 94 -223 18 -52 43 -121 54 -152
11 -31 27 -96 35 -145 9 -55 33 -135 64 -213 27 -69 58 -152 68 -185 15 -48
32 -74 87 -131 54 -58 69 -81 78 -120 6 -27 13 -170 15 -319 l5 -270 34 -52
c22 -33 36 -69 41 -103 6 -42 16 -64 57 -114 59 -73 86 -128 87 -177 0 -42
-36 -153 -74 -226 -22 -42 -25 -56 -16 -72 29 -54 140 13 222 134 51 76 82 95
208 125 55 13 132 41 182 66 48 24 122 53 165 65 99 27 123 39 203 104 36 29
94 67 130 85 90 45 143 83 225 160 90 85 112 99 220 145 50 20 120 53 157 71
119 60 141 41 51 -44 -293 -276 -380 -347 -528 -435 -61 -36 -126 -81 -145
-101 -47 -49 -177 -135 -271 -180 -114 -53 -191 -114 -213 -167 -45 -105 -60
-131 -102 -178 -65 -72 -168 -137 -289 -181 -139 -50 -201 -88 -301 -185 -61
-60 -90 -97 -113 -146 -17 -36 -46 -81 -64 -100 -30 -31 -244 -187 -392 -286
-97 -65 -181 -140 -215 -190 -17 -26 -42 -85 -56 -131 -24 -78 -31 -89 -125
-195 -116 -130 -215 -274 -269 -391 -38 -83 -62 -111 -151 -174 -25 -18 -94
-88 -153 -156 -106 -121 -195 -208 -287 -278 -49 -36 -80 -46 -337 -102 -175
-39 -214 -64 -471 -304 -121 -112 -167 -144 -202 -135 -30 8 -31 34 -4 90 32
64 49 82 230 242 146 129 246 200 380 270 130 67 164 98 225 201 61 102 81
122 180 180 57 33 70 46 75 72 13 59 32 83 137 170 181 150 298 286 298 347 0
11 -16 49 -35 85 -19 37 -35 77 -35 90 0 58 138 189 307 290 124 75 133 83
133 118 0 24 -7 32 -45 50 -83 41 -57 63 156 132 90 29 199 69 241 89 94 43
97 50 84 210 l-8 113 61 180 c60 178 111 383 111 447 0 44 -29 71 -74 69 -24
-1 -40 6 -57 24 -21 22 -24 37 -30 157 -9 164 -17 196 -81 361 l-51 131 -9
290 c-7 223 -14 309 -28 370 -25 109 -32 188 -23 264 8 62 9 65 41 73 21 6 36
18 42 33 14 36 14 419 1 484 -29 141 -6 132 70 -26z"/>
<path d="M4016 6006 c-21 -8 -54 -29 -72 -47 -69 -67 -81 -138 -39 -228 l26
-54 -56 -116 c-30 -64 -58 -137 -61 -162 -12 -87 36 -177 111 -210 24 -11 57
-35 74 -54 85 -97 199 -102 278 -12 39 45 52 87 59 197 3 47 17 129 31 182 32
122 27 172 -23 224 -32 35 -37 36 -82 31 l-47 -5 3 77 c4 87 -12 140 -50 165
-35 23 -106 29 -152 12z m126 -89 c7 -13 8 -50 4 -104 -4 -53 -2 -91 5 -104
16 -30 55 -42 96 -28 70 23 87 -36 50 -168 -15 -50 -27 -127 -30 -179 -8 -139
-38 -191 -117 -201 -39 -6 -43 -4 -89 45 -26 27 -69 60 -95 73 -39 18 -53 31
-68 67 -25 56 -17 91 52 233 27 56 50 110 50 120 0 10 -12 47 -26 83 -30 72
-28 98 12 145 42 50 133 61 156 18z"/>
<path d="M7155 5921 c-16 -10 -45 -34 -63 -54 l-34 -35 -49 25 c-45 24 -51 25
-85 12 -62 -23 -79 -57 -79 -152 0 -45 7 -138 14 -207 27 -247 -9 -493 -127
-875 -37 -116 -53 -189 -61 -268 -9 -88 -17 -121 -46 -182 -71 -152 -102 -274
-85 -336 15 -56 62 -99 110 -99 45 0 56 9 151 120 39 47 78 86 85 88 22 5 17
-42 -10 -111 -16 -40 -26 -90 -29 -142 -8 -134 -34 -260 -67 -319 -16 -29 -33
-72 -36 -97 -5 -38 -1 -50 26 -92 31 -46 32 -50 26 -120 -4 -40 -16 -121 -27
-182 -11 -60 -28 -164 -38 -230 -11 -67 -37 -173 -59 -240 -68 -204 -79 -333
-34 -394 11 -16 24 -45 28 -66 13 -70 74 -104 122 -68 37 27 107 163 128 248
9 39 27 88 40 110 45 79 82 220 129 490 25 149 50 280 55 292 7 18 15 20 48
16 48 -6 94 16 118 57 10 16 24 32 31 34 17 7 41 -19 49 -52 13 -53 45 -102
77 -118 41 -22 46 -29 107 -147 64 -122 76 -156 96 -270 21 -125 41 -166 122
-244 79 -78 104 -123 156 -280 29 -86 54 -138 113 -230 70 -110 77 -125 98
-223 12 -58 29 -119 38 -137 10 -18 19 -69 23 -120 3 -48 10 -105 15 -125 20
-78 109 -104 171 -49 29 25 32 35 36 95 2 36 7 66 10 66 3 0 13 -7 23 -16 10
-9 34 -16 55 -16 70 0 98 61 83 182 -11 93 -14 101 -81 290 -77 214 -122 390
-148 581 -27 201 -39 240 -101 335 -69 105 -86 146 -94 224 -18 173 -66 228
-233 265 -87 20 -116 42 -182 139 -26 39 -73 103 -104 141 -31 39 -75 108 -98
155 -22 47 -54 100 -71 119 -46 54 -60 94 -47 142 17 62 54 94 138 118 78 23
234 104 310 161 65 49 106 108 132 187 29 87 85 211 108 236 9 11 71 51 137
90 138 81 206 144 254 237 38 71 154 189 248 252 63 41 93 80 93 121 0 68 -52
103 -138 92 -103 -13 -329 -148 -478 -285 -49 -45 -105 -94 -124 -108 -19 -14
-76 -66 -127 -116 l-92 -89 -65 -8 c-86 -11 -125 -32 -226 -124 -76 -69 -199
-145 -236 -145 -6 0 -29 -13 -52 -29 -46 -34 -47 -33 -62 58 -8 48 -6 59 20
117 16 36 34 92 41 125 15 78 7 190 -17 226 -13 20 -20 57 -25 136 -4 61 -15
129 -25 158 l-19 51 48 136 c54 157 63 218 49 319 -13 89 -28 121 -71 150 -41
28 -76 29 -116 4z m85 -69 c17 -14 24 -34 30 -92 12 -99 -1 -172 -50 -304 -44
-117 -48 -152 -24 -217 8 -24 19 -95 23 -156 6 -90 11 -117 27 -134 16 -18 19
-36 18 -118 0 -87 -4 -103 -34 -171 -36 -81 -39 -102 -26 -245 9 -93 19 -125
38 -125 6 0 43 24 82 53 39 30 94 62 121 72 71 26 146 76 224 149 83 78 117
96 184 100 70 4 86 14 198 120 299 283 523 447 662 483 96 25 114 -7 37 -64
-25 -18 -89 -72 -142 -120 -80 -71 -105 -101 -140 -166 -50 -95 -86 -127 -238
-217 -63 -37 -127 -81 -141 -97 -35 -37 -79 -128 -113 -230 -35 -105 -71 -154
-154 -207 -87 -56 -218 -121 -262 -131 -101 -22 -152 -70 -180 -170 -11 -40
-11 -54 3 -99 9 -29 32 -70 50 -92 19 -21 50 -73 69 -114 19 -41 66 -115 105
-165 38 -49 84 -112 103 -140 41 -63 97 -123 131 -140 14 -7 63 -23 109 -34
123 -31 145 -55 160 -180 14 -105 30 -149 95 -252 30 -47 59 -98 65 -115 6
-16 22 -101 35 -189 36 -240 57 -327 146 -589 69 -201 82 -252 87 -322 4 -70
2 -84 -10 -84 -23 0 -55 40 -83 103 -27 61 -46 77 -70 57 -12 -10 -13 -36 -8
-154 5 -122 4 -143 -10 -154 -9 -8 -25 -11 -36 -7 -22 7 -27 25 -35 148 -4 45
-14 98 -26 123 -10 25 -24 73 -30 107 -17 99 -40 157 -90 232 -77 115 -97 155
-130 260 -45 138 -92 226 -154 283 -84 76 -94 95 -122 232 -38 187 -154 421
-223 449 -23 10 -35 27 -58 84 -21 55 -36 75 -61 90 -48 28 -94 17 -129 -33
-33 -47 -54 -56 -94 -40 -24 10 -33 10 -54 -4 -13 -9 -29 -25 -35 -36 -5 -10
-33 -147 -60 -303 -51 -294 -82 -414 -131 -505 -15 -29 -33 -78 -39 -109 -13
-62 -87 -216 -100 -208 -5 3 -11 18 -15 34 -3 16 -17 43 -31 62 -16 21 -24 46
-24 71 0 60 28 181 67 290 20 57 42 149 53 221 11 67 28 172 39 233 11 60 23
151 27 202 7 90 7 91 -25 141 -36 56 -36 65 9 146 31 55 58 182 70 330 4 50
15 113 24 140 9 28 18 78 18 112 2 74 -17 103 -65 103 -32 0 -78 -43 -180
-167 -50 -62 -64 -69 -88 -47 -39 35 -14 161 62 320 33 69 41 97 49 184 11
115 15 132 76 325 107 340 144 631 112 883 -18 136 -17 227 2 247 14 14 21 12
64 -16 62 -39 80 -34 149 36 30 30 59 55 64 55 6 0 21 -8 33 -18z"/>
<path d="M21712 5655 c-59 -30 -99 -81 -131 -165 -11 -29 -31 -69 -44 -89 -13
-20 -29 -52 -37 -71 -7 -19 -32 -66 -56 -105 -52 -86 -70 -146 -85 -282 -8
-76 -19 -125 -41 -177 -43 -102 -58 -169 -58 -271 0 -81 -3 -97 -37 -175 -36
-80 -38 -91 -39 -195 -2 -156 -2 -153 -24 -175 -15 -15 -33 -20 -75 -20 -61 0
-112 -17 -162 -56 -24 -18 -50 -26 -95 -31 -102 -9 -148 -46 -148 -119 0 -74
70 -124 175 -124 48 0 70 -8 170 -61 97 -51 121 -60 157 -58 40 3 43 2 40 -20
-2 -12 -19 -55 -38 -94 -28 -60 -34 -83 -34 -140 0 -54 -5 -78 -27 -120 -40
-76 -37 -147 8 -256 l36 -83 -24 -60 c-37 -92 -40 -177 -9 -271 22 -67 26 -95
26 -201 0 -106 -5 -142 -32 -252 -30 -119 -32 -142 -33 -299 0 -191 12 -248
67 -311 60 -68 117 -35 143 81 9 39 36 132 61 208 48 147 54 185 79 492 25
303 31 342 64 394 16 26 35 66 42 91 15 56 15 199 0 263 -10 44 -9 56 20 140
l32 92 -7 159 c-8 212 2 224 117 135 56 -43 75 -52 133 -61 64 -10 160 -7 214
7 19 5 41 -4 90 -36 80 -52 163 -79 242 -79 53 0 63 3 90 30 27 27 30 36 24
69 -6 38 -5 39 42 63 87 44 102 126 34 191 -40 38 -131 76 -204 85 -56 7 -69
13 -104 47 -55 56 -124 79 -217 72 -39 -3 -82 -8 -94 -12 -19 -6 -23 -4 -23
14 0 82 -83 107 -265 80 -108 -16 -109 -13 -61 119 55 152 124 409 132 494 4
47 21 111 46 178 33 86 40 118 40 175 0 87 -11 116 -67 172 -27 26 -45 53 -45
66 0 13 25 66 56 118 77 129 141 261 149 308 20 117 -95 185 -213 126z m107
-56 c27 -10 31 -15 31 -48 0 -41 -43 -137 -110 -246 -108 -176 -116 -250 -33
-315 41 -32 52 -58 53 -123 0 -43 -9 -81 -36 -150 -24 -60 -41 -127 -50 -192
-16 -122 -67 -311 -123 -462 -46 -127 -51 -178 -21 -211 30 -32 63 -36 181
-22 59 7 119 10 133 6 24 -6 26 -10 26 -65 0 -84 12 -90 95 -50 58 28 73 31
124 26 61 -5 135 -36 144 -61 11 -28 58 -49 137 -62 80 -12 154 -45 173 -75
17 -28 0 -49 -68 -79 -60 -27 -65 -31 -65 -61 0 -18 7 -40 16 -50 14 -16 13
-18 -15 -24 -51 -11 -137 15 -219 67 -80 50 -114 58 -181 38 -18 -5 -69 -6
-113 -3 -68 5 -85 10 -120 37 -77 59 -112 76 -156 76 -35 0 -49 -6 -74 -31
l-31 -30 7 -168 8 -168 -33 -93 c-32 -92 -32 -92 -19 -181 20 -136 10 -209
-38 -300 -30 -58 -41 -92 -46 -140 -3 -35 -10 -120 -16 -189 -38 -429 -36
-416 -88 -580 -27 -85 -53 -176 -56 -203 -4 -26 -11 -47 -15 -47 -15 0 -39 63
-52 135 -17 98 -5 254 31 409 26 113 30 149 30 278 0 128 -3 155 -22 205 -30
79 -28 159 6 242 14 36 26 72 26 81 0 8 -16 54 -36 100 -43 103 -45 149 -10
218 20 40 26 66 26 118 0 58 6 80 41 157 34 74 41 96 36 133 -7 63 -22 78 -72
69 -66 -11 -76 -9 -175 46 -84 46 -104 53 -173 59 -66 6 -83 11 -105 33 -25
25 -25 27 -9 45 13 14 36 21 86 24 58 4 75 10 108 37 46 37 89 51 156 51 112
0 142 48 143 230 0 121 2 128 36 205 32 73 36 90 41 201 5 111 8 129 46 226
30 75 44 131 51 194 16 146 28 186 80 275 28 46 50 88 50 94 0 5 16 37 36 69
20 33 45 84 56 113 29 78 64 116 134 143 1 0 15 -5 33 -11z"/>
<path d="M19443 5215 c-53 -23 -66 -63 -68 -200 -1 -66 -8 -192 -15 -280 -15
-186 -16 -271 -5 -375 7 -67 4 -89 -25 -204 -59 -239 -41 -343 73 -419 l57
-38 0 -56 c0 -45 -9 -75 -42 -147 -53 -115 -54 -152 -4 -266 20 -46 36 -94 36
-107 0 -13 -9 -65 -21 -116 -17 -76 -20 -108 -14 -187 9 -110 9 -173 4 -322
l-4 -107 32 -32 c41 -42 112 -50 161 -19 55 34 74 93 82 250 6 130 8 139 48
230 61 140 66 174 58 395 -4 104 -7 207 -7 227 1 46 28 115 40 102 5 -5 11
-88 13 -184 3 -163 5 -178 26 -212 13 -21 27 -38 30 -38 29 0 165 -169 251
-310 19 -30 62 -86 96 -125 34 -38 68 -81 76 -95 8 -16 16 -76 19 -165 6 -128
9 -146 38 -213 17 -40 43 -127 57 -194 27 -133 52 -185 114 -241 70 -63 142
-63 200 -1 33 36 33 37 29 118 -4 66 -11 96 -42 166 -93 208 -88 187 -85 348
6 348 4 358 -154 616 l-36 58 6 99 c6 96 5 100 -25 161 -44 88 -164 225 -237
269 -50 30 -61 41 -63 67 -3 31 0 33 80 70 46 21 116 64 156 95 51 38 89 59
125 68 121 28 230 117 288 235 30 61 32 68 26 147 -8 115 -19 143 -92 242 -36
48 -65 93 -65 100 0 7 -15 33 -34 58 l-33 44 23 54 c13 30 23 67 24 83 0 42
-42 108 -91 142 -42 29 -44 29 -178 29 l-136 0 -60 34 c-111 63 -169 44 -288
-96 -115 -136 -136 -164 -160 -215 -12 -26 -25 -48 -29 -48 -22 0 -39 84 -47
234 -9 178 -20 216 -70 259 -37 31 -86 35 -138 12z m113 -97 c12 -23 18 -75
24 -193 6 -117 12 -170 24 -193 9 -18 16 -55 16 -92 0 -47 4 -64 20 -80 11
-11 25 -20 30 -20 21 0 52 43 104 148 35 69 75 132 113 174 32 36 76 86 98
111 57 64 80 67 174 23 82 -38 133 -45 242 -31 65 8 101 -6 143 -55 32 -39 32
-44 1 -102 -31 -59 -33 -108 -4 -134 12 -10 36 -48 54 -84 19 -36 54 -89 78
-118 49 -59 64 -98 73 -190 6 -54 3 -68 -20 -116 -16 -33 -51 -77 -87 -110
-51 -47 -72 -59 -142 -81 -80 -24 -103 -37 -182 -99 -20 -17 -78 -50 -129 -75
-76 -38 -94 -52 -109 -83 -34 -69 1 -132 104 -191 53 -30 172 -169 202 -236
16 -38 18 -56 12 -136 -8 -106 -11 -97 91 -265 90 -149 98 -187 91 -426 -4
-121 -2 -205 4 -230 6 -21 35 -94 65 -161 40 -90 56 -139 61 -187 5 -61 4 -65
-20 -81 -72 -47 -152 51 -181 225 -9 52 -33 135 -53 185 -34 83 -37 97 -35
180 3 94 -11 181 -34 227 -8 15 -40 56 -72 90 -32 35 -98 124 -147 198 -59 89
-115 161 -167 212 l-78 77 0 123 c-1 156 -13 254 -36 279 -28 31 -87 26 -117
-11 -52 -62 -57 -104 -43 -375 10 -191 3 -238 -55 -373 -40 -93 -42 -103 -49
-232 -8 -154 -23 -204 -64 -214 -60 -15 -76 19 -64 134 11 99 9 182 -4 260
-11 64 -10 83 10 183 30 152 29 184 -13 277 -19 43 -35 92 -35 110 0 18 19 74
42 124 37 79 43 100 42 156 -1 85 -20 121 -83 156 -90 49 -102 125 -50 334 28
113 30 134 24 225 -9 144 -9 182 5 355 6 85 14 213 17 285 2 71 9 136 15 142
6 7 26 13 44 13 28 0 36 -6 50 -32z"/>
<path d="M20067 4658 c-62 -16 -131 -88 -177 -184 -38 -80 -43 -85 -92 -108
-56 -25 -76 -49 -89 -106 -15 -64 -1 -97 77 -180 40 -43 82 -98 94 -122 54
-106 109 -124 196 -65 66 45 140 144 160 213 15 52 15 64 -2 169 -9 62 -15
119 -11 128 3 8 38 41 77 72 84 67 101 95 79 133 -8 15 -26 32 -39 38 -34 16
-226 24 -273 12z m237 -77 c4 -5 -16 -25 -43 -45 -27 -20 -64 -53 -81 -73 -36
-40 -35 -16 -13 -265 4 -56 2 -75 -16 -111 -26 -54 -134 -160 -158 -155 -9 2
-34 32 -54 68 -20 36 -64 95 -98 132 -45 49 -61 74 -61 95 0 38 24 70 59 78
39 8 75 49 110 125 62 138 96 160 243 160 59 0 109 -4 112 -9z"/>
<path d="M18285 4882 c-28 -10 -71 -30 -97 -44 -60 -36 -185 -171 -253 -273
-44 -68 -64 -87 -127 -127 -142 -90 -192 -167 -229 -353 -19 -99 -26 -115 -66
-167 -110 -143 -119 -258 -33 -393 74 -117 77 -139 69 -495 -3 -166 -2 -177
19 -222 33 -67 61 -82 155 -84 73 -2 81 -4 139 -43 33 -22 84 -48 113 -57 44
-14 54 -23 76 -63 47 -89 126 -113 231 -69 41 17 74 22 148 22 94 1 97 2 167
43 86 51 216 172 289 268 29 38 76 97 104 130 68 80 129 204 137 277 9 87 -11
147 -87 263 -38 56 -73 106 -79 109 -21 14 -43 69 -43 111 0 29 17 82 52 165
46 109 52 132 57 214 7 113 -8 209 -43 284 -14 31 -32 87 -40 124 -17 86 -25
101 -107 192 -60 66 -81 82 -170 126 -163 80 -277 98 -382 62z m217 -73 c20
-5 71 -25 115 -45 61 -28 95 -52 155 -112 78 -76 91 -99 103 -181 4 -24 21
-73 39 -110 29 -62 31 -73 34 -203 l3 -137 -46 -107 c-76 -174 -80 -242 -21
-325 97 -134 156 -230 166 -271 23 -90 -25 -215 -126 -328 -29 -33 -77 -92
-107 -132 -59 -79 -115 -135 -191 -192 -91 -69 -122 -80 -221 -81 -68 -1 -105
-7 -153 -25 -81 -30 -107 -22 -142 43 -33 62 -46 73 -105 90 -28 8 -79 33
-114 56 -70 45 -112 57 -171 47 -32 -5 -44 -2 -67 18 l-28 24 -1 274 c-1 307
-3 320 -74 438 -75 124 -73 196 11 306 66 88 66 87 93 225 33 162 63 208 194
295 84 56 99 70 153 152 71 109 187 231 248 262 75 37 154 43 253 19z"/>
<path d="M18205 4361 c-47 -22 -115 -90 -144 -146 -18 -33 -21 -57 -21 -152
l0 -112 -71 -76 c-96 -104 -110 -139 -110 -270 0 -227 44 -325 146 -325 36 0
48 -5 71 -33 47 -53 92 -130 99 -169 4 -20 16 -46 27 -58 17 -18 27 -21 62
-15 22 3 77 9 121 13 91 8 99 12 121 54 23 44 12 117 -32 231 -47 120 -47 166
-4 272 37 89 51 196 31 234 -7 12 -37 38 -67 57 -30 19 -75 54 -99 78 l-45 43
0 74 c0 59 5 83 24 120 50 92 43 159 -19 184 -43 18 -41 19 -90 -4z m70 -71
c4 -6 -8 -41 -27 -78 -29 -60 -33 -76 -33 -152 0 -116 27 -157 165 -246 25
-16 49 -33 53 -39 14 -18 -3 -102 -38 -194 -42 -108 -43 -152 -9 -246 57 -156
67 -195 55 -221 -10 -23 -15 -25 -54 -19 -27 4 -58 1 -84 -8 -46 -16 -63 -8
-63 29 0 33 -114 200 -149 218 -16 9 -45 16 -64 16 -68 0 -86 42 -94 216 -7
145 0 165 93 264 33 36 66 75 73 87 6 12 11 68 11 130 0 103 2 112 28 154 33
51 57 74 92 88 33 13 38 13 45 1z"/>
<path d="M4255 4833 c-16 -2 -47 -18 -68 -35 -32 -25 -44 -29 -70 -23 -94 19
-105 18 -132 -10 -33 -37 -36 -104 -9 -205 15 -53 14 -60 -10 -157 -14 -56
-26 -111 -26 -123 0 -35 27 -76 66 -99 l36 -22 -4 -62 c-3 -45 -15 -87 -45
-152 -54 -119 -70 -192 -54 -245 6 -22 37 -70 67 -107 l55 -68 -6 -95 c-18
-297 -18 -295 -1 -347 12 -35 16 -76 14 -135 -3 -80 -1 -87 32 -149 l35 -64 0
-235 c0 -233 0 -236 26 -285 44 -87 125 -120 182 -74 47 36 59 101 57 316 l-1
192 52 133 c28 73 58 166 66 206 18 86 11 124 -44 246 -42 94 -40 112 20 209
23 38 52 85 64 105 28 45 29 103 4 157 -17 38 -41 63 -106 109 -68 47 -77 185
-27 386 40 156 40 210 2 319 -28 79 -29 87 -18 150 9 54 9 72 -3 95 -26 55
-83 80 -154 69z m83 -86 c8 -9 8 -32 1 -79 -11 -70 -9 -83 30 -190 28 -77 27
-117 -11 -266 -36 -139 -43 -269 -19 -350 13 -48 60 -106 103 -128 35 -18 68
-69 68 -105 0 -14 -26 -66 -60 -118 -96 -150 -99 -180 -35 -322 51 -113 50
-157 -5 -309 -23 -63 -51 -140 -62 -170 -17 -48 -20 -80 -20 -245 1 -257 -17
-313 -81 -249 -44 44 -50 87 -42 314 l7 205 -36 69 c-39 75 -39 74 -36 181 1
47 -4 83 -15 110 -18 42 -18 46 1 311 9 123 2 153 -53 216 -86 100 -87 132
-11 301 36 80 42 103 46 179 5 96 11 83 -71 150 l-28 23 25 105 c30 122 31
143 11 200 -16 46 -20 126 -7 134 5 3 27 -1 49 -9 50 -17 99 -6 133 30 18 19
34 25 66 25 23 0 46 -6 52 -13z"/>
<path d="M12407 4817 c-73 -44 -155 -212 -170 -346 -5 -47 -18 -110 -28 -140
-11 -29 -26 -93 -33 -141 -10 -56 -29 -118 -55 -177 -23 -52 -50 -133 -61
-189 -35 -171 -35 -169 -93 -205 -28 -17 -73 -50 -98 -73 -26 -22 -65 -53 -88
-69 -23 -15 -56 -49 -74 -75 -18 -26 -54 -67 -81 -92 -56 -53 -72 -79 -81
-140 -14 -93 -73 -168 -62 -79 22 179 31 233 52 299 16 51 27 119 34 212 7 86
22 188 42 270 56 242 50 362 -24 424 -25 21 -38 25 -66 20 -19 -3 -43 -13 -52
-23 -31 -32 -119 -210 -155 -314 -20 -57 -49 -129 -66 -162 -16 -33 -38 -91
-47 -130 -20 -76 -20 -76 -45 0 -11 34 -30 63 -53 83 -31 27 -42 31 -85 29
-62 -4 -67 4 -102 159 -41 182 -88 249 -181 260 -39 4 -48 1 -73 -25 -29 -28
-29 -31 -37 -178 -4 -83 -8 -235 -9 -340 -1 -177 -3 -193 -23 -232 -13 -24
-33 -61 -44 -84 -12 -22 -25 -37 -29 -32 -5 4 -24 38 -43 74 -26 49 -38 88
-46 155 -7 49 -26 129 -43 179 -22 65 -34 129 -45 230 -7 77 -23 174 -34 215
-13 46 -23 129 -28 215 -11 194 -37 245 -123 245 -30 0 -47 -8 -79 -37 -60
-54 -88 -111 -121 -241 -44 -180 -45 -182 -127 -182 -61 0 -99 -52 -169 -233
-36 -91 -62 -174 -62 -195 0 -21 12 -87 26 -148 l26 -110 -46 -155 c-32 -105
-68 -197 -114 -289 -64 -128 -67 -138 -67 -205 0 -57 6 -81 30 -130 24 -51 30
-76 34 -168 6 -107 7 -109 39 -138 24 -21 42 -29 70 -29 47 0 70 23 105 100
13 30 41 82 61 114 40 66 44 95 20 151 -20 49 -14 70 41 143 39 52 48 73 62
144 15 80 49 164 80 200 14 16 19 14 70 -25 68 -53 87 -93 148 -307 26 -91 60
-190 76 -220 15 -30 44 -89 62 -131 19 -42 46 -85 62 -97 55 -44 130 -19 167
56 22 47 22 106 -2 292 -11 93 -13 270 -2 270 5 0 20 -18 34 -39 22 -34 26
-52 29 -143 5 -116 25 -165 81 -194 69 -36 130 -13 176 65 23 39 28 60 31 141
8 224 7 252 -19 322 -26 70 -24 87 7 69 83 -46 270 -342 347 -547 29 -77 53
-110 93 -125 36 -14 90 6 107 39 11 21 36 145 36 176 0 3 4 6 9 6 4 0 14 -27
20 -59 6 -32 24 -78 40 -101 30 -45 98 -97 140 -106 15 -4 65 -24 112 -45 76
-35 96 -40 165 -40 44 -1 91 4 105 9 30 12 81 64 121 123 26 38 27 39 32 17 3
-12 12 -52 20 -88 21 -94 31 -115 77 -164 53 -59 115 -83 168 -68 51 16 106
73 121 127 22 78 -11 237 -87 420 l-46 110 -9 270 c-9 308 -9 307 72 600 28
99 50 196 50 216 0 23 -13 63 -35 105 -25 49 -35 79 -35 113 0 59 31 192 69
305 44 129 38 199 -21 240 -33 24 -106 20 -151 -7z m117 -63 c23 -22 20 -44
-19 -166 -46 -141 -65 -234 -65 -313 0 -54 6 -75 36 -134 l37 -70 -20 -83
c-12 -46 -41 -162 -66 -259 l-46 -176 4 -281 c5 -309 -1 -275 83 -492 43 -111
78 -267 68 -305 -10 -39 -55 -85 -83 -85 -35 0 -88 35 -112 73 -11 18 -32 90
-46 160 -27 136 -40 173 -61 181 -28 11 -46 -8 -81 -82 -20 -41 -55 -94 -78
-118 -41 -43 -43 -44 -106 -44 -53 0 -77 6 -137 35 -40 19 -89 39 -110 45 -46
12 -116 57 -137 87 -9 13 -19 65 -25 128 -10 104 -10 106 19 178 16 40 34 98
40 129 10 49 18 62 57 94 25 20 61 60 81 90 19 29 54 65 76 80 23 15 56 41 74
57 17 16 60 48 94 71 35 22 71 55 81 72 10 17 29 84 43 150 15 73 40 155 66
214 23 52 46 124 51 160 6 36 21 100 35 143 14 43 28 115 32 160 7 67 16 100
53 178 46 98 83 139 124 139 12 0 30 -7 38 -16z m-2330 -231 c10 -30 16 -81
16 -146 0 -71 7 -128 25 -201 13 -55 29 -150 35 -211 13 -127 21 -168 54 -268
14 -39 30 -110 36 -157 9 -67 21 -105 58 -179 l47 -95 2 -204 c1 -120 9 -259
18 -334 18 -142 15 -186 -15 -213 -20 -18 -21 -18 -45 5 -14 13 -34 48 -46 79
-11 31 -33 79 -49 106 -15 28 -51 130 -79 228 -61 211 -85 262 -148 314 -25
21 -57 48 -69 61 -34 33 -62 28 -107 -20 -51 -53 -94 -145 -111 -238 -8 -41
-23 -84 -35 -99 -80 -99 -95 -151 -66 -226 l17 -46 -41 -67 c-22 -37 -47 -83
-55 -103 -21 -50 -40 -64 -60 -44 -12 13 -16 37 -16 107 0 79 -4 98 -29 152
-16 33 -32 81 -36 106 -6 41 -1 55 58 175 62 124 84 184 141 376 32 107 32
131 1 250 -13 51 -25 104 -25 116 0 29 115 321 136 344 11 13 31 19 58 19 45
0 99 27 116 60 6 11 24 75 41 141 36 147 47 175 89 222 44 51 64 48 84 -10z
m1362 -304 c30 -33 24 -153 -15 -324 -19 -80 -38 -204 -46 -290 -13 -144 -23
-189 -52 -245 -7 -14 -13 -57 -13 -98 0 -42 -6 -88 -15 -108 -12 -28 -13 -58
-9 -133 5 -72 2 -127 -11 -210 -25 -156 -51 -162 -100 -23 -54 153 -221 430
-314 522 -31 31 -69 80 -86 110 -16 29 -35 55 -42 57 -6 3 -21 -5 -32 -16 -19
-19 -21 -33 -21 -130 0 -78 5 -119 16 -147 18 -42 20 -174 5 -356 -2 -24 -50
-78 -70 -78 -41 0 -56 37 -62 151 -6 107 -7 110 -50 175 -41 64 -43 68 -43
147 0 79 1 85 41 150 57 94 67 157 53 317 -7 86 -7 142 0 179 5 30 10 100 10
156 0 119 11 140 55 111 40 -27 63 -73 86 -176 28 -129 47 -180 81 -214 26
-25 34 -28 74 -23 60 6 75 -9 109 -108 30 -88 55 -136 93 -177 38 -41 52 -36
53 20 4 159 17 227 60 313 15 30 44 102 63 160 40 116 135 309 152 309 6 0 19
-9 30 -21z"/>
<path d="M12055 3354 c-16 -8 -48 -32 -70 -53 -22 -22 -51 -42 -64 -46 -43
-13 -100 -74 -106 -113 -4 -21 -15 -58 -26 -84 -35 -85 -19 -168 42 -223 51
-46 102 -60 154 -43 30 10 58 36 126 116 50 60 91 118 97 141 7 21 12 76 12
122 0 101 -22 159 -69 183 -38 20 -58 20 -96 0z m84 -95 c18 -51 14 -159 -7
-200 -18 -35 -79 -113 -134 -171 -36 -38 -80 -38 -118 0 -40 41 -47 88 -21
147 12 26 21 56 21 67 0 34 19 57 68 82 26 13 67 42 92 65 56 50 84 53 99 10z"/>
<path d="M9997 4032 c-9 -9 -28 -55 -43 -102 -14 -47 -39 -110 -54 -140 -63
-128 -80 -235 -41 -273 19 -20 24 -20 81 -9 58 12 61 12 97 -13 22 -14 52 -25
70 -25 67 0 92 101 57 221 -13 41 -15 76 -11 149 7 106 -9 162 -54 194 -31 21
-82 20 -102 -2z m81 -196 c-1 -81 3 -126 15 -165 19 -62 22 -121 6 -121 -6 0
-25 10 -42 22 -32 23 -73 28 -121 15 -28 -8 -28 -8 -21 30 3 21 26 81 50 133
23 52 48 115 55 140 18 68 28 84 46 69 11 -9 14 -36 12 -123z"/>
<path d="M5710 4752 c-74 -25 -204 -106 -235 -147 -15 -19 -30 -57 -36 -92 -6
-33 -14 -64 -17 -70 -4 -5 -45 -23 -92 -38 -150 -49 -202 -84 -250 -169 -22
-38 -30 -64 -30 -101 0 -70 -23 -153 -71 -254 -35 -73 -42 -98 -46 -171 -4
-72 -10 -95 -39 -148 -19 -35 -52 -87 -73 -115 -61 -84 -84 -135 -89 -207 -4
-59 -2 -67 21 -92 18 -19 36 -28 57 -28 16 0 30 -3 30 -7 0 -5 -12 -46 -25
-92 -34 -117 -33 -171 4 -213 29 -33 31 -33 123 -34 116 -1 113 -1 133 -20 13
-13 14 -29 9 -88 -8 -86 -2 -100 67 -172 49 -50 50 -51 60 -140 13 -118 27
-160 62 -190 33 -28 54 -30 102 -10 42 18 83 80 146 221 59 132 111 213 144
221 14 3 45 1 69 -6 52 -14 88 -2 180 64 101 72 99 71 236 71 107 0 131 3 165
21 53 27 140 147 154 212 20 96 -22 172 -95 172 -41 0 -59 -9 -122 -57 -67
-51 -116 -45 -237 29 -132 81 -147 84 -212 51 -51 -25 -56 -26 -106 -13 -84
21 -109 16 -199 -45 -94 -63 -126 -68 -157 -29 -35 45 -29 64 72 241 109 190
111 243 10 331 -53 46 -55 51 -49 84 12 64 64 125 195 230 69 55 163 136 209
179 69 66 82 83 82 110 0 18 -7 40 -16 50 -42 46 31 73 241 88 163 12 197 20
254 61 97 70 129 165 77 227 -47 56 -145 67 -297 33 -99 -22 -103 -22 -172 34
-34 27 -47 31 -110 33 -49 2 -89 -3 -127 -15z m211 -92 c30 -23 65 -44 79 -47
14 -4 72 3 130 15 123 26 158 27 205 8 45 -19 46 -52 5 -100 -53 -60 -96 -74
-286 -90 -145 -12 -179 -18 -225 -40 -79 -37 -105 -69 -100 -124 0 -7 15 -19
31 -26 l30 -12 -82 -80 c-46 -43 -132 -117 -192 -164 -160 -124 -227 -225
-212 -320 4 -26 19 -48 59 -85 30 -27 57 -58 60 -67 10 -28 -10 -79 -77 -195
-35 -61 -72 -132 -81 -157 -34 -88 -1 -171 79 -201 56 -22 84 -13 186 55 41
27 84 50 94 50 11 0 43 -7 71 -16 52 -17 53 -17 110 10 34 17 66 25 79 22 12
-3 57 -28 99 -56 94 -62 115 -70 182 -70 67 0 89 8 144 54 62 52 85 47 89 -19
3 -45 -2 -57 -39 -112 -62 -94 -72 -98 -211 -95 -138 3 -154 -2 -276 -85 l-82
-57 -52 11 c-32 6 -64 7 -84 1 -50 -13 -117 -96 -175 -216 -28 -59 -63 -131
-77 -161 -15 -29 -37 -60 -50 -69 -42 -28 -52 -1 -78 202 -5 41 -14 57 -65
112 l-59 64 5 77 c5 67 3 83 -13 109 -32 50 -82 68 -171 61 -87 -7 -111 2
-111 41 0 41 37 167 66 225 47 91 54 122 38 146 -22 30 -37 26 -94 -24 -28
-25 -55 -43 -61 -40 -14 9 -11 61 6 101 8 19 46 83 86 141 87 132 90 137 100
248 6 74 15 105 48 176 48 102 71 184 71 254 0 39 7 62 29 97 35 55 85 86 201
124 130 42 139 51 160 163 6 30 15 60 22 68 19 23 147 96 202 115 85 29 126
24 187 -22z"/>
</g>
</svg>
